<svg xmlns="http://www.w3.org/2000/svg" xlink="http://www.w3.org/1999/xlink" width="0" height="0" style="display:none;"><symbol viewBox="0 0 24 24" id="book-read-fill"><path fill="none" d="M0 0h24v24H0z"/><path d="M2 3.993A1 1 0 0 1 2.992 3h18.016c.548 0 .992.445.992.993v16.014a1 1 0 0 1-.992.993H2.992A.993.993 0 0 1 2 20.007V3.993zM12 5v14h8V5h-8zm1 2h6v2h-6V7zm0 3h6v2h-6v-2z"/></symbol><symbol viewBox="0 0 24 24" id="book-read-line"><path fill="none" d="M0 0h24v24H0z"/><path d="M2 3.993A1 1 0 0 1 2.992 3h18.016c.548 0 .992.445.992.993v16.014a1 1 0 0 1-.992.993H2.992A.993.993 0 0 1 2 20.007V3.993zM11 5H4v14h7V5zm2 0v14h7V5h-7zm1 2h5v2h-5V7zm0 3h5v2h-5v-2z"/></symbol><symbol viewBox="0 0 24 24" id="edit-box-line"><path fill="none" d="M0 0h24v24H0z"/><path d="M16.757 3l-2 2H5v14h14V9.243l2-2V20a1 1 0 0 1-1 1H4a1 1 0 0 1-1-1V4a1 1 0 0 1 1-1h12.757zm3.728-.9L21.9 3.516l-9.192 9.192-1.412.003-.002-1.417L20.485 2.1z"/></symbol><symbol viewBox="0 0 24 24" id="edit-box-fill"><path fill="none" d="M0 0h24v24H0z"/><path d="M16.757 3l-7.466 7.466.008 4.247 4.238-.007L21 7.243V20a1 1 0 0 1-1 1H4a1 1 0 0 1-1-1V4a1 1 0 0 1 1-1h12.757zm3.728-.9L21.9 3.516l-9.192 9.192-1.412.003-.002-1.417L20.485 2.1z"/></symbol></svg>